# xmcd CD database file
#
# Track frame offsets:
#	150
#	14306
#	31749
#	44209
#	62800
#	76255
#	94878
#	113160
#	131461
#	146282
#	160129
#	174699
#	188026
#	202338
#	218075
#
# Disc length: 3131 seconds
#
# Revision: 0
# Processed by: cddbd v1.5.2PL0 Copyright (c) Steve Scherf et al.
# Submitted via: CDex 1.51
#
DISCID=d20c390f
DTITLE=Fiona Boyes - Blues Woman
DYEAR=2009
DGENRE=Blues
TTITLE0=Woman Ain't A Mule
TTITLE1=Howlin' At Your Door
TTITLE2=I Want To Go
TTITLE3=Train To Hopeville
TTITLE4=Look Out Love
TTITLE5=Got My Eye On You
TTITLE6=Do You Feel Better?
TTITLE7=The Barrelhouse Funeral
TTITLE8=Place Of Milk And Honey
TTITLE9=Waiting For Some Good News
TTITLE10=Precious Time
TTITLE11=Fishin' Hole
TTITLE12=City Born Country Gal
TTITLE13=Juke Joint On Moses Lane
TTITLE14=Old Time Ways
EXTD=YEAR: 2009
EXTT0=
EXTT1=
EXTT2=
EXTT3=
EXTT4=
EXTT5=
EXTT6=
EXTT7=
EXTT8=
EXTT9=
EXTT10=
EXTT11=
EXTT12=
EXTT13=
EXTT14=
PLAYORDER=
